HIERARCHY
ROOT root
{
	OFFSET	0	13.1	24.9
	CHANNELS 6  Xposition Yposition Zposition Xrotation Yrotation Zrotation
	JOINT spine_1
	{
		OFFSET	0	9.99999	0
		CHANNELS 3  Xrotation Yrotation Zrotation
		JOINT spine_2
		{
			OFFSET	0	112	-10
			CHANNELS 3  Xrotation Yrotation Zrotation
			JOINT spine_3
			{
				OFFSET	0	206.5	19.3
				CHANNELS 3  Xrotation Yrotation Zrotation
				JOINT spine_4
				{
					OFFSET	0	110.4	14.6
					CHANNELS 3  Xrotation Yrotation Zrotation
					JOINT neck_1
					{
						OFFSET	0	71.8	-50.3
						CHANNELS 3  Xrotation Yrotation Zrotation
						JOINT neck_2
						{
							OFFSET	0	86.2	-25.8
							CHANNELS 3  Xrotation Yrotation Zrotation
							JOINT head_ee
							{
								OFFSET	0	179.8	-8.7
								CHANNELS 3  Xrotation Yrotation Zrotation
								End Site
								{
									OFFSET	1	0	0
								}
							}
						}
					}
					JOINT left_clavicle
					{
						OFFSET	-43.2	22.4	-70.8
						CHANNELS 3  Xrotation Yrotation Zrotation
						JOINT left_shoulder
						{
							OFFSET	-93.9	-5.79999	48.7
							CHANNELS 3  Xrotation Yrotation Zrotation
							JOINT left_elbow
							{
								OFFSET	-291.4	-30.8	15.2
								CHANNELS 3  Xrotation Yrotation Zrotation
								JOINT left_lowarm_twist
								{
									OFFSET	-110.7	-3.89999	13.6
									CHANNELS 3  Xrotation Yrotation Zrotation
									JOINT left_hand
									{
										OFFSET	-110.7	-3.89999	13.6
										CHANNELS 3  Xrotation Yrotation Zrotation
										JOINT left_ee
										{
											OFFSET	-80.8	-5.10001	12.1
											CHANNELS 3  Xrotation Yrotation Zrotation
											End Site
											{
												OFFSET	1	0	0
											}
										}
									}
								}
							}
						}
					}
					JOINT right_clavicle
					{
						OFFSET	43.2	22.4	-70.8
						CHANNELS 3  Xrotation Yrotation Zrotation
						JOINT right_shoulder
						{
							OFFSET	93.9	-5.79999	48.7
							CHANNELS 3  Xrotation Yrotation Zrotation
							JOINT right_elbow
							{
								OFFSET	291.4	-30.8	15.2
								CHANNELS 3  Xrotation Yrotation Zrotation
								JOINT right_lowarm_twist
								{
									OFFSET	110.7	-3.89999	13.6
									CHANNELS 3  Xrotation Yrotation Zrotation
									JOINT right_hand
									{
										OFFSET	110.7	-3.89999	13.6
										CHANNELS 3  Xrotation Yrotation Zrotation
										JOINT right_ee
										{
											OFFSET	80.8	-5.10001	12.1
											CHANNELS 3  Xrotation Yrotation Zrotation
											End Site
											{
												OFFSET	1	0	0
											}
										}
									}
								}
							}
						}
					}
				}
			}
		}
	}
	JOINT left_hip
	{
		OFFSET	-82.8	-127.5	0.300001
		CHANNELS 3  Xrotation Yrotation Zrotation
		JOINT left_knee
		{
			OFFSET	-28.2	-396.7	2.2
			CHANNELS 3  Xrotation Yrotation Zrotation
			JOINT left_ankle
			{
				OFFSET	-11.7	-411.3	35.4
				CHANNELS 3  Xrotation Yrotation Zrotation
				JOINT left_toes
				{
					OFFSET	0	-60	-88.6
					CHANNELS 3  Xrotation Yrotation Zrotation
					JOINT left_foot_ee
					{
						OFFSET	-22.5	-16.5	-42.2
						CHANNELS 3  Xrotation Yrotation Zrotation
						End Site
						{
							OFFSET	1	0	0
						}
					}
				}
			}
		}
	}
	JOINT right_hip
	{
		OFFSET	82.8	-127.5	0.300001
		CHANNELS 3  Xrotation Yrotation Zrotation
		JOINT right_knee
		{
			OFFSET	28.2	-396.7	2.2
			CHANNELS 3  Xrotation Yrotation Zrotation
			JOINT right_ankle
			{
				OFFSET	11.7	-411.3	35.4
				CHANNELS 3  Xrotation Yrotation Zrotation
				JOINT right_toes
				{
					OFFSET	0	-60	-88.6
					CHANNELS 3  Xrotation Yrotation Zrotation
					JOINT right_foot_ee
					{
						OFFSET	22.5	-16.5	-42.2
						CHANNELS 3  Xrotation Yrotation Zrotation
						End Site
						{
							OFFSET	1	0	0
						}
					}
				}
			}
		}
	}
}
MOTION
Frames: 5
Frame Time: 0.02
2800.94 716.97 -1473.77 0.540529364286 83.1914157703 0.657117171443 -1.29215 -0.199633 -0.394673 -1.29208 -0.174114 -0.406576 -1.29074 -0.0749758 -0.435888 -1.29098 -0.142875 -0.418577 1.1931 10.8064 1.60935 1.44758 17.781 2.7078 -0.0 0.0 -0.0 3.10462 10.3863 6.55853 11.0744 -31.013 58.8279 3.71569 -61.4691 2.20974 -4.96713 -0.201272 0.601996 -1.17816 -4.97398 -10.0992 -0.0 0.0 -0.0 5.07365 9.62841 -9.36276 -24.6046 24.7098 -61.627 0.877145 23.4853 -0.182332 -3.25084 0.125823 -0.395959 0.773144 -24.3693 -14.2039 0.0 0.0 0.0 -9.42934 26.1432 -0.941384 -11.6271 0.301445 1.75585 20.8999 -3.73076 -2.89241 4.86658 -0.0 -0.0 -0.0 0.0 -0.0 30.1636 22.9059 -7.44 2.31749 0.102348 0.340858 -20.1799 -11.8738 -3.03856 -28.4372 0.0 0.0 0.0 0.0 0.0 
2701.41567729 713.036 -1496.86524225 121.507647495 86.9294974782 -121.641537789 -1.32789 -0.0860408 -0.159853 -1.32788 -0.0756946 -0.165004 -1.32764 -0.0352072 -0.178091 -1.32768 -0.0628915 -0.170296 2.41448 8.74923 0.796661 2.61207 14.6563 1.53616 -0.0 0.0 -0.0 1.8582 13.6406 4.64868 4.43388 -30.1012 60.7361 3.68127 -61.2451 2.17954 -7.22419 -0.309842 0.869392 -1.19131 -4.24005 -9.86539 -0.0 0.0 -0.0 4.83771 6.75183 -9.03936 -23.4666 25.105 -64.1005 1.01798 26.7602 -0.24215 -1.70309 0.0631118 -0.208318 1.45508 -25.3556 -18.5522 0.0 0.0 0.0 -13.238 24.5081 -2.51184 -21.131 0.280482 3.21223 23.4262 -7.42172 -3.24537 8.96335 -0.0 -0.0 -0.0 0.0 -0.0 24.4442 24.1935 -6.94747 -8.83509 -0.261702 -1.32932 -17.1383 -6.49606 -2.57491 -26.0015 0.0 0.0 0.0 0.0 0.0 
2701.98745144 713.036 -1499.2037209 95.5762814896 87.3700686084 -95.6793260218 -1.32789 -0.0860408 -0.159853 -1.32788 -0.0756946 -0.165004 -1.32764 -0.0352072 -0.178091 -1.32768 -0.0628915 -0.170296 2.41448 8.74923 0.796661 2.61207 14.6563 1.53616 -0.0 0.0 -0.0 1.8582 13.6406 4.64868 4.43388 -30.1012 60.7361 3.68127 -61.2451 2.17954 -7.22419 -0.309842 0.869392 -1.19131 -4.24005 -9.86539 -0.0 0.0 -0.0 4.83771 6.75183 -9.03936 -23.4666 25.105 -64.1005 1.01798 26.7602 -0.24215 -1.70309 0.0631118 -0.208318 1.45508 -25.3556 -18.5522 0.0 0.0 0.0 -13.238 24.5081 -2.51184 -21.131 0.280482 3.21223 23.4262 -7.42172 -3.24537 8.96335 -0.0 -0.0 -0.0 0.0 -0.0 24.4442 24.1935 -6.94747 -8.83509 -0.261702 -1.32932 -17.1383 -6.49606 -2.57491 -26.0015 0.0 0.0 0.0 0.0 0.0 
2702.4404328 713.036 -1500.90514853 74.3933273523 87.2822517868 -74.473813711 -1.32789 -0.0860408 -0.159853 -1.32788 -0.0756946 -0.165004 -1.32764 -0.0352072 -0.178091 -1.32768 -0.0628915 -0.170296 2.41448 8.74923 0.796661 2.61207 14.6563 1.53616 -0.0 0.0 -0.0 1.8582 13.6406 4.64868 4.43388 -30.1012 60.7361 3.68127 -61.2451 2.17954 -7.22419 -0.309842 0.869392 -1.19131 -4.24005 -9.86539 -0.0 0.0 -0.0 4.83771 6.75183 -9.03936 -23.4666 25.105 -64.1005 1.01798 26.7602 -0.24215 -1.70309 0.0631118 -0.208318 1.45508 -25.3556 -18.5522 0.0 0.0 0.0 -13.238 24.5081 -2.51184 -21.131 0.280482 3.21223 23.4262 -7.42172 -3.24537 8.96335 -0.0 -0.0 -0.0 0.0 -0.0 24.4442 24.1935 -6.94747 -8.83509 -0.261702 -1.32932 -17.1383 -6.49606 -2.57491 -26.0015 0.0 0.0 0.0 0.0 0.0 
2654.52374365 722.129 -1509.50296014 112.623731281 84.2049445046 -112.479881682 -1.72679 0.122184 -0.360341 -1.72673 0.144865 -0.351836 -1.72761 0.224934 -0.306887 -1.7277 0.173645 -0.338559 1.10181 7.71395 0.11141 1.25342 13.553 0.821092 -0.0 0.0 -0.0 0.0801166 15.4033 1.93867 3.00102 -30.6579 63.2967 3.27613 -58.3462 1.82929 -7.043 -0.300738 0.848084 -1.12734 3.51656 -5.98129 -0.0 0.0 -0.0 4.31704 3.8856 -8.13982 -21.2132 25.7065 -64.8007 1.00553 26.4778 -0.236571 -2.51439 0.0953512 -0.306885 1.42231 -29.389 -19.4339 0.0 0.0 0.0 -12.0214 19.2255 -6.75326 -29.666 0.0567143 4.50174 10.8727 -1.34413 -1.56066 17.367 -0.0 -0.0 -0.0 0.0 -0.0 20.8359 25.1728 -9.21037 -12.2055 -0.307076 -1.84442 -12.6725 -1.30867 -1.91133 -27.5117 0.0 0.0 0.0 0.0 0.0 
